# Blender v2.90.0 OBJ File: ''
# www.blender.org
mtllib pom2.mtl
o tomato.002
v -0.004842 0.032812 -0.002215
v -0.004562 0.033277 -0.001928
v -0.003331 0.033345 -0.001808
v -0.003482 0.032928 -0.002139
v -0.002205 0.033377 -0.001290
v -0.002209 0.033026 -0.001613
v -0.001344 0.033375 -0.000451
v -0.001220 0.033083 -0.000715
v -0.000882 0.033341 0.000569
v -0.000666 0.033090 0.000402
v -0.000887 0.033278 0.001614
v -0.000626 0.033044 0.001562
v -0.001371 0.033192 0.002545
v -0.001116 0.032945 0.002615
v -0.002292 0.033089 0.003238
v -0.002092 0.032801 0.003423
v -0.003507 0.032991 0.003570
v -0.003409 0.032639 0.003850
v -0.004802 0.032916 0.003472
v -0.004836 0.032493 0.003807
v -0.005957 0.032878 0.002955
v -0.006126 0.032393 0.003295
v -0.006790 0.032884 0.002109
v -0.007080 0.032349 0.002403
v -0.007188 0.032929 0.001071
v -0.007570 0.032367 0.001274
v -0.007114 0.033004 -0.000001
v -0.007545 0.032440 0.000077
v -0.006591 0.033092 -0.000956
v -0.007022 0.032568 -0.001046
v -0.005703 0.033184 -0.001633
v -0.006037 0.032773 -0.001954
v -0.004686 0.026144 -0.002986
v -0.003150 0.026247 -0.002863
v -0.001768 0.026306 -0.002159
v -0.000751 0.026312 -0.000980
v -0.000253 0.026263 0.000493
v -0.000351 0.026167 0.002038
v -0.001029 0.026042 0.003416
v -0.002185 0.025908 0.004417
v -0.003642 0.025780 0.004892
v -0.005178 0.025679 0.004768
v -0.006560 0.025621 0.004064
v -0.007577 0.025613 0.002887
v -0.008074 0.025658 0.001416
v -0.007976 0.025746 -0.000123
v -0.007298 0.025871 -0.001501
v -0.006142 0.026013 -0.002508
v -0.005966 0.032280 -0.001739
v -0.004818 0.032354 -0.002046
v -0.006877 0.032118 -0.000921
v -0.007367 0.032007 0.000122
v -0.007386 0.031940 0.001249
v -0.006922 0.031918 0.002317
v -0.006021 0.031949 0.003167
v -0.004804 0.032041 0.003656
v -0.003461 0.032184 0.003700
v -0.002223 0.032348 0.003298
v -0.001302 0.032498 0.002535
v -0.000832 0.032602 0.001536
v -0.000863 0.032646 0.000431
v -0.001386 0.032631 -0.000630
v -0.002323 0.032564 -0.001481
v -0.003529 0.032463 -0.001978
v -0.004717 0.030119 -0.001766
v -0.003619 0.030216 -0.001691
v -0.002609 0.030290 -0.001224
v -0.001843 0.030326 -0.000443
v -0.001439 0.030314 0.000522
v -0.001448 0.030249 0.001523
v -0.001870 0.030140 0.002422
v -0.002656 0.030013 0.003097
v -0.003699 0.029889 0.003439
v -0.004828 0.029790 0.003380
v -0.005856 0.029730 0.002923
v -0.006618 0.029714 0.002144
v -0.007003 0.029742 0.001170
v -0.006966 0.029805 0.000151
v -0.006521 0.029898 -0.000764
v -0.005733 0.030009 -0.001439
v -0.005991 0.027794 -0.002186
v -0.004634 0.027919 -0.002631
v -0.007058 0.027663 -0.001260
v -0.007675 0.027549 0.000003
v -0.007745 0.027471 0.001410
v -0.007256 0.027435 0.002751
v -0.006279 0.027449 0.003819
v -0.004961 0.027510 0.004451
v -0.003503 0.027608 0.004552
v -0.002130 0.027729 0.004107
v -0.001055 0.027853 0.003185
v -0.000445 0.027967 0.001922
v -0.000390 0.028051 0.000513
v -0.000895 0.028089 -0.000826
v -0.001879 0.028078 -0.001894
v -0.003191 0.028018 -0.002527
vt 1.000000 0.934203
vt 1.000000 1.000000
vt 0.937500 1.000000
vt 0.937500 0.934203
vt 0.875000 1.000000
vt 0.875000 0.934203
vt 0.812500 1.000000
vt 0.812500 0.934203
vt 0.750000 1.000000
vt 0.750000 0.934203
vt 0.687500 1.000000
vt 0.687500 0.934203
vt 0.625000 1.000000
vt 0.625000 0.934203
vt 0.562500 1.000000
vt 0.562500 0.934203
vt 0.500000 1.000000
vt 0.500000 0.934203
vt 0.437500 1.000000
vt 0.437500 0.934203
vt 0.375000 1.000000
vt 0.375000 0.934203
vt 0.312500 1.000000
vt 0.312500 0.934203
vt 0.250000 1.000000
vt 0.250000 0.934203
vt 0.187500 1.000000
vt 0.187500 0.934203
vt 0.125000 1.000000
vt 0.125000 0.934203
vt 0.341844 0.471731
vt 0.250000 0.490000
vt 0.158156 0.471731
vt 0.080294 0.419706
vt 0.028269 0.341844
vt 0.010000 0.250000
vt 0.028269 0.158156
vt 0.080294 0.080294
vt 0.158156 0.028269
vt 0.250000 0.010000
vt 0.341844 0.028269
vt 0.419706 0.080294
vt 0.471731 0.158156
vt 0.490000 0.250000
vt 0.471731 0.341844
vt 0.419706 0.419706
vt 0.062500 1.000000
vt 0.062500 0.934203
vt 0.000000 1.000000
vt 0.000000 0.934203
vt 0.750000 0.490000
vt 0.841844 0.471731
vt 0.919706 0.419706
vt 0.971731 0.341844
vt 0.990000 0.250000
vt 0.971731 0.158156
vt 0.919706 0.080294
vt 0.841844 0.028269
vt 0.750000 0.010000
vt 0.658156 0.028269
vt 0.580294 0.080294
vt 0.528269 0.158156
vt 0.510000 0.250000
vt 0.528269 0.341844
vt 0.580294 0.419706
vt 0.658156 0.471731
vt 0.062500 0.896126
vt 0.000000 0.896126
vt 0.125000 0.896126
vt 0.187500 0.896126
vt 0.250000 0.896126
vt 0.312500 0.896126
vt 0.375000 0.896126
vt 0.437500 0.896126
vt 0.500000 0.896126
vt 0.562500 0.896126
vt 0.625000 0.896126
vt 0.687500 0.896126
vt 0.750000 0.896126
vt 0.812500 0.896126
vt 0.875000 0.896126
vt 0.937500 0.896126
vt 1.000000 0.896126
vt 1.000000 0.728479
vt 0.937500 0.728479
vt 0.875000 0.728479
vt 0.812500 0.728479
vt 0.750000 0.728479
vt 0.687500 0.728479
vt 0.625000 0.728479
vt 0.562500 0.728479
vt 0.500000 0.728479
vt 0.437500 0.728479
vt 0.375000 0.728479
vt 0.312500 0.728479
vt 0.250000 0.728479
vt 0.187500 0.728479
vt 0.125000 0.728479
vt 0.062500 0.728479
vt 0.000000 0.728479
vt 0.062500 0.500000
vt 0.062500 0.610729
vt 0.000000 0.610729
vt 0.000000 0.500000
vt 0.125000 0.500000
vt 0.125000 0.610729
vt 0.187500 0.500000
vt 0.187500 0.610729
vt 0.250000 0.500000
vt 0.250000 0.610729
vt 0.312500 0.500000
vt 0.312500 0.610729
vt 0.375000 0.500000
vt 0.375000 0.610729
vt 0.437500 0.500000
vt 0.437500 0.610729
vt 0.500000 0.500000
vt 0.500000 0.610729
vt 0.562500 0.500000
vt 0.562500 0.610729
vt 0.625000 0.500000
vt 0.625000 0.610729
vt 0.687500 0.500000
vt 0.687500 0.610729
vt 0.750000 0.500000
vt 0.750000 0.610729
vt 0.812500 0.500000
vt 0.812500 0.610729
vt 0.875000 0.500000
vt 0.875000 0.610729
vt 0.937500 0.500000
vt 0.937500 0.610729
vt 1.000000 0.500000
vt 1.000000 0.610729
vn -0.1092 0.1393 -0.9842
vn -0.0688 0.8874 -0.4557
vn 0.0913 0.8869 -0.4528
vn 0.2042 0.1289 -0.9704
vn 0.2403 0.8985 -0.3673
vn 0.5204 0.1405 -0.8423
vn 0.3487 0.9095 -0.2261
vn 0.7845 0.1550 -0.6004
vn 0.4036 0.9140 -0.0410
vn 0.9555 0.1650 -0.2445
vn 0.3846 0.9073 0.1698
vn 0.9675 0.1654 0.1914
vn 0.2821 0.8928 0.3511
vn 0.7851 0.1595 0.5985
vn 0.1370 0.8788 0.4570
vn 0.4753 0.1580 0.8655
vn -0.0128 0.8688 0.4950
vn 0.1315 0.1598 0.9783
vn -0.1606 0.8618 0.4811
vn -0.2113 0.1541 0.9652
vn -0.3045 0.8567 0.4164
vn -0.5380 0.1380 0.8315
vn -0.4313 0.8528 0.2944
vn -0.8132 0.1169 0.5700
vn -0.5110 0.8516 0.1163
vn -0.9748 0.1042 0.1974
vn -0.5072 0.8577 -0.0840
vn -0.9708 0.1042 -0.2159
vn -0.4093 0.8814 -0.2356
vn -0.8047 0.1209 -0.5812
vn -0.2430 0.8990 -0.3643
vn -0.4748 0.1697 -0.8636
vn -0.0631 -0.5688 -0.8200
vn 0.2407 -0.5645 -0.7895
vn 0.5035 -0.5716 -0.6478
vn 0.6916 -0.5874 -0.4201
vn 0.7843 -0.6049 -0.1379
vn 0.7696 -0.6168 0.1651
vn 0.6435 -0.6197 0.4493
vn 0.4171 -0.6174 0.6670
vn 0.1246 -0.6169 0.7771
vn -0.1861 -0.6207 0.7616
vn -0.4666 -0.6267 0.6240
vn -0.6733 -0.6309 0.3854
vn -0.7735 -0.6284 0.0822
vn -0.7487 -0.6188 -0.2378
vn -0.6039 -0.6019 -0.5224
vn -0.3621 -0.5826 -0.7276
vn -0.4368 -0.2853 -0.8531
vn -0.0808 -0.2543 -0.9637
vn -0.7500 -0.2854 -0.5967
vn -0.9265 -0.2894 -0.2402
vn -0.9419 -0.2891 0.1710
vn -0.7903 -0.2712 0.5494
vn -0.5172 -0.2428 0.8206
vn -0.1848 -0.2250 0.9567
vn 0.1619 -0.2329 0.9589
vn 0.4943 -0.2687 0.8267
vn 0.7710 -0.3157 0.5530
vn 0.9242 -0.3413 0.1711
vn 0.9166 -0.3295 -0.2261
vn 0.7740 -0.2964 -0.5595
vn 0.5378 -0.2629 -0.8010
vn 0.2387 -0.2434 -0.9401
vn -0.1292 0.1156 -0.9848
vn 0.2282 0.1293 -0.9650
vn 0.5574 0.1242 -0.8209
vn 0.8211 0.1081 -0.5604
vn 0.9761 0.0934 -0.1960
vn 0.9685 0.0971 0.2293
vn 0.7774 0.1241 0.6166
vn 0.4637 0.1549 0.8723
vn 0.1093 0.1710 0.9792
vn -0.2432 0.1656 0.9557
vn -0.5704 0.1418 0.8090
vn -0.8348 0.1098 0.5395
vn -0.9819 0.0828 0.1700
vn -0.9688 0.0719 -0.2372
vn -0.7958 0.0764 -0.6007
vn -0.4945 0.0926 -0.8643
vn -0.4939 0.2603 -0.8296
vn -0.1333 0.2750 -0.9521
vn -0.7812 0.2459 -0.5738
vn -0.9442 0.2407 -0.2245
vn -0.9555 0.2493 0.1574
vn -0.8204 0.2688 0.5046
vn -0.5724 0.2907 0.7667
vn -0.2534 0.3044 0.9182
vn 0.1004 0.3028 0.9477
vn 0.4528 0.2863 0.8444
vn 0.7525 0.2639 0.6033
vn 0.9349 0.2493 0.2526
vn 0.9582 0.2495 -0.1398
vn 0.8264 0.2614 -0.4986
vn 0.5732 0.2753 -0.7717
vn 0.2393 0.2811 -0.9293
usemtl None
s 1
f 1/1/1 2/2/2 3/3/3 4/4/4
f 4/4/4 3/3/3 5/5/5 6/6/6
f 6/6/6 5/5/5 7/7/7 8/8/8
f 8/8/8 7/7/7 9/9/9 10/10/10
f 10/10/10 9/9/9 11/11/11 12/12/12
f 12/12/12 11/11/11 13/13/13 14/14/14
f 14/14/14 13/13/13 15/15/15 16/16/16
f 16/16/16 15/15/15 17/17/17 18/18/18
f 18/18/18 17/17/17 19/19/19 20/20/20
f 20/20/20 19/19/19 21/21/21 22/22/22
f 22/22/22 21/21/21 23/23/23 24/24/24
f 24/24/24 23/23/23 25/25/25 26/26/26
f 26/26/26 25/25/25 27/27/27 28/28/28
f 28/28/28 27/27/27 29/29/29 30/30/30
f 3/31/3 2/32/2 31/33/31 29/34/29 27/35/27 25/36/25 23/37/23 21/38/21 19/39/19 17/40/17 15/41/15 13/42/13 11/43/11 9/44/9 7/45/7 5/46/5
f 30/30/30 29/29/29 31/47/31 32/48/32
f 32/48/32 31/47/31 2/49/2 1/50/1
f 33/51/33 34/52/34 35/53/35 36/54/36 37/55/37 38/56/38 39/57/39 40/58/40 41/59/41 42/60/42 43/61/43 44/62/44 45/63/45 46/64/46 47/65/47 48/66/48
f 49/67/49 32/48/32 1/50/1 50/68/50
f 51/69/51 30/30/30 32/48/32 49/67/49
f 52/70/52 28/28/28 30/30/30 51/69/51
f 53/71/53 26/26/26 28/28/28 52/70/52
f 54/72/54 24/24/24 26/26/26 53/71/53
f 55/73/55 22/22/22 24/24/24 54/72/54
f 56/74/56 20/20/20 22/22/22 55/73/55
f 57/75/57 18/18/18 20/20/20 56/74/56
f 58/76/58 16/16/16 18/18/18 57/75/57
f 59/77/59 14/14/14 16/16/16 58/76/58
f 60/78/60 12/12/12 14/14/14 59/77/59
f 61/79/61 10/10/10 12/12/12 60/78/60
f 62/80/62 8/8/8 10/10/10 61/79/61
f 63/81/63 6/6/6 8/8/8 62/80/62
f 64/82/64 4/4/4 6/6/6 63/81/63
f 50/83/50 1/1/1 4/4/4 64/82/64
f 65/84/65 50/83/50 64/82/64 66/85/66
f 66/85/66 64/82/64 63/81/63 67/86/67
f 67/86/67 63/81/63 62/80/62 68/87/68
f 68/87/68 62/80/62 61/79/61 69/88/69
f 69/88/69 61/79/61 60/78/60 70/89/70
f 70/89/70 60/78/60 59/77/59 71/90/71
f 71/90/71 59/77/59 58/76/58 72/91/72
f 72/91/72 58/76/58 57/75/57 73/92/73
f 73/92/73 57/75/57 56/74/56 74/93/74
f 74/93/74 56/74/56 55/73/55 75/94/75
f 75/94/75 55/73/55 54/72/54 76/95/76
f 76/95/76 54/72/54 53/71/53 77/96/77
f 77/96/77 53/71/53 52/70/52 78/97/78
f 78/97/78 52/70/52 51/69/51 79/98/79
f 79/98/79 51/69/51 49/67/49 80/99/80
f 80/99/80 49/67/49 50/68/50 65/100/65
f 48/101/48 81/102/81 82/103/82 33/104/33
f 81/102/81 80/99/80 65/100/65 82/103/82
f 47/105/47 83/106/83 81/102/81 48/101/48
f 83/106/83 79/98/79 80/99/80 81/102/81
f 46/107/46 84/108/84 83/106/83 47/105/47
f 84/108/84 78/97/78 79/98/79 83/106/83
f 45/109/45 85/110/85 84/108/84 46/107/46
f 85/110/85 77/96/77 78/97/78 84/108/84
f 44/111/44 86/112/86 85/110/85 45/109/45
f 86/112/86 76/95/76 77/96/77 85/110/85
f 43/113/43 87/114/87 86/112/86 44/111/44
f 87/114/87 75/94/75 76/95/76 86/112/86
f 42/115/42 88/116/88 87/114/87 43/113/43
f 88/116/88 74/93/74 75/94/75 87/114/87
f 41/117/41 89/118/89 88/116/88 42/115/42
f 89/118/89 73/92/73 74/93/74 88/116/88
f 40/119/40 90/120/90 89/118/89 41/117/41
f 90/120/90 72/91/72 73/92/73 89/118/89
f 39/121/39 91/122/91 90/120/90 40/119/40
f 91/122/91 71/90/71 72/91/72 90/120/90
f 38/123/38 92/124/92 91/122/91 39/121/39
f 92/124/92 70/89/70 71/90/71 91/122/91
f 37/125/37 93/126/93 92/124/92 38/123/38
f 93/126/93 69/88/69 70/89/70 92/124/92
f 36/127/36 94/128/94 93/126/93 37/125/37
f 94/128/94 68/87/68 69/88/69 93/126/93
f 35/129/35 95/130/95 94/128/94 36/127/36
f 95/130/95 67/86/67 68/87/68 94/128/94
f 34/131/34 96/132/96 95/130/95 35/129/35
f 96/132/96 66/85/66 67/86/67 95/130/95
f 33/133/33 82/134/82 96/132/96 34/131/34
f 82/134/82 65/84/65 66/85/66 96/132/96
