# Blender v2.90.0 OBJ File: ''
# www.blender.org
mtllib pom3.mtl
o tomato.003
v -0.011402 0.027104 0.019987
v -0.011833 0.025203 0.002995
v 0.000463 0.025966 -0.004204
v 0.016318 0.028299 0.010335
v -0.000751 0.026312 -0.000980
v -0.003642 0.025780 0.004892
v -0.007577 0.025613 0.002887
v -0.003853 0.026185 0.000943
v -0.004678 0.025928 0.007235
v 0.001197 0.026686 0.005045
v -0.004955 0.030170 -0.008340
v -0.001302 0.028759 -0.006522
v -0.003492 0.032271 -0.015191
v -0.006095 0.033205 -0.016083
v -0.003169 0.034192 -0.022636
v -0.000433 0.033500 -0.021787
v 0.001867 0.032701 -0.028057
v -0.001634 0.032602 -0.028702
v -0.000226 0.029088 -0.031329
v 0.001591 0.030933 -0.030793
v -0.001007 0.023776 -0.036460
v -0.002190 0.023883 -0.036497
v -0.011598 0.030015 -0.007236
v -0.009049 0.029149 -0.009372
v -0.012035 0.030414 -0.014815
v -0.014626 0.030967 -0.013719
v -0.015921 0.029394 -0.017988
v -0.012997 0.028554 -0.019192
v -0.014681 0.026605 -0.023141
v -0.017405 0.027543 -0.022060
v -0.018024 0.024166 -0.025445
v -0.019125 0.024719 -0.027112
v 0.003907 0.030550 -0.004581
v 0.006092 0.030658 -0.002767
v 0.009612 0.032459 -0.009831
v 0.008474 0.031645 -0.011579
v 0.018459 0.031122 -0.015045
v 0.017853 0.030992 -0.016447
v 0.030704 0.029452 -0.013588
v 0.029926 0.029938 -0.014872
v 0.003769 0.031768 0.007213
v 0.001019 0.030059 0.010000
v 0.009118 0.038353 0.012938
v 0.010376 0.040191 0.010220
v 0.017192 0.035512 0.015764
v 0.018295 0.037648 0.012947
v 0.021490 0.037293 0.015427
v 0.022260 0.039313 0.013083
v -0.006946 0.032296 0.012089
v -0.009908 0.031064 0.012054
v -0.012925 0.035140 0.017232
v -0.011139 0.036435 0.017636
v -0.016467 0.036872 0.021742
v -0.015142 0.036877 0.022131
v -0.022213 0.035930 0.023592
v -0.021451 0.036569 0.025105
v -0.018693 0.029493 0.001035
v -0.018227 0.029127 -0.002253
v -0.021057 0.027404 -0.002440
v -0.022648 0.028557 0.000115
v -0.029560 0.025597 -0.001764
v -0.030579 0.027338 -0.000155
v -0.044277 0.022674 -0.001817
v -0.044598 0.023801 -0.000436
v 0.002262 0.027908 0.005977
v -0.000786 0.027469 0.009671
v -0.008870 0.032047 -0.016709
v -0.006754 0.032747 -0.023121
v 0.002776 0.028960 -0.002543
v 0.003905 0.030078 -0.000606
v -0.003662 0.026336 -0.005641
v 0.000110 0.026041 -0.003449
v -0.010181 0.026271 -0.005336
v -0.007537 0.026553 -0.007399
v -0.015513 0.029235 0.001948
v -0.015396 0.028734 -0.001292
v -0.005139 0.027161 0.010361
v -0.008785 0.026718 0.008932
v -0.011172 0.026011 0.002792
v -0.011892 0.026349 -0.001711
v 0.004201 0.028296 0.002745
v 0.006139 0.029287 0.004807
v 0.019793 0.035913 0.010530
v 0.023426 0.037461 0.011138
v 0.012030 0.038159 0.007902
v -0.005554 0.030143 -0.028915
v -0.003244 0.025375 -0.031488
v 0.002016 0.029132 -0.006129
v 0.017425 0.029553 -0.017611
v 0.029339 0.029071 -0.015927
v 0.007554 0.029572 -0.013064
v -0.007948 0.030053 -0.010009
v -0.003384 0.023348 -0.036779
v -0.013575 0.028541 -0.004910
v -0.020060 0.027812 -0.020911
v -0.020090 0.026850 -0.025469
v -0.018687 0.028670 -0.016624
v -0.016880 0.029422 -0.012376
v -0.010632 0.026793 0.005248
v -0.014667 0.028741 0.004913
v -0.018143 0.028971 0.004015
v -0.030805 0.027234 0.001862
v -0.044260 0.023427 0.001281
v -0.023012 0.028647 0.002796
v -0.003750 0.031233 0.012361
v -0.013805 0.036851 0.023468
v -0.019933 0.035448 0.025310
v -0.009084 0.035730 0.018180
v -0.008564 0.026120 0.002012
v -0.007864 0.025522 -0.003248
v -0.003556 0.025518 -0.003844
v 0.000433 0.027042 -0.001319
vt 0.459689 0.530137
vt 0.501593 0.452692
vt 0.550491 0.501305
vt 0.406578 0.643414
vt 0.458893 0.652145
vt 0.390800 0.726285
vt 0.359111 0.715639
vt 0.287418 0.801677
vt 0.312515 0.816384
vt 0.276367 0.843141
vt 0.257008 0.829428
vt 0.205444 0.851590
vt 0.228422 0.870399
vt 0.196907 0.884032
vt 0.170287 0.873381
vt 0.331574 0.537648
vt 0.349528 0.572720
vt 0.288636 0.591464
vt 0.271167 0.558815
vt 0.204295 0.604503
vt 0.217265 0.630751
vt 0.153457 0.662468
vt 0.141149 0.647645
vt 0.139755 0.670103
vt 0.130529 0.661160
vt 0.565186 0.661568
vt 0.608258 0.645695
vt 0.645314 0.733489
vt 0.632061 0.738109
vt 0.717635 0.842412
vt 0.708635 0.845150
vt 0.776902 0.979998
vt 0.762639 0.983927
vt 0.638217 0.483776
vt 0.633204 0.449880
vt 0.787937 0.421049
vt 0.779672 0.447799
vt 0.871470 0.398669
vt 0.874671 0.418703
vt 0.975064 0.331290
vt 0.978599 0.352242
vt 0.566077 0.362260
vt 0.524328 0.351883
vt 0.580936 0.240993
vt 0.631590 0.254341
vt 0.618563 0.155147
vt 0.662108 0.156178
vt 0.644519 0.015705
vt 0.672312 0.012542
vt 0.335977 0.406907
vt 0.314765 0.440501
vt 0.267170 0.415373
vt 0.284865 0.385099
vt 0.222251 0.393231
vt 0.217637 0.373521
vt 0.163479 0.461229
vt 0.148402 0.457383
vt 0.570455 0.494966
vt 0.569808 0.450718
vt 0.332035 0.701533
vt 0.260362 0.777694
vt 0.530974 0.591027
vt 0.578852 0.555891
vt 0.425171 0.593931
vt 0.482447 0.602689
vt 0.359365 0.522491
vt 0.377405 0.567500
vt 0.378416 0.428891
vt 0.348714 0.466903
vt 0.522172 0.414658
vt 0.464456 0.406824
vt 0.395535 0.444153
vt 0.359849 0.484344
vt 0.573358 0.539429
vt 0.635230 0.524233
vt 0.879053 0.436240
vt 0.983940 0.375347
vt 0.775704 0.470728
vt 0.205776 0.808297
vt 0.173605 0.827636
vt 0.532905 0.662986
vt 0.676409 0.861560
vt 0.742674 0.989433
vt 0.587152 0.752212
vt 0.363889 0.631404
vt 0.165817 0.846246
vt 0.310061 0.508617
vt 0.145344 0.613325
vt 0.122489 0.647560
vt 0.196624 0.567011
vt 0.255324 0.530010
vt 0.441925 0.410696
vt 0.414902 0.403617
vt 0.357887 0.374847
vt 0.212691 0.351151
vt 0.138369 0.432284
vt 0.288097 0.354556
vt 0.598711 0.393740
vt 0.686555 0.173854
vt 0.716828 0.009596
vt 0.658701 0.273085
vt 0.416614 0.472404
vt 0.392445 0.525012
vt 0.434760 0.576210
vt 0.505513 0.569279
vn -0.1044 0.9938 -0.0374
vn -0.0655 0.9853 -0.1575
vn -0.3431 0.9380 -0.0488
vn -0.1607 0.7863 0.5965
vn -0.1769 0.6894 0.7024
vn 0.2050 0.9330 0.2957
vn -0.1271 0.9665 0.2231
vn -0.0992 0.9917 -0.0815
vn 0.1688 0.9847 0.0418
vn 0.0203 0.8950 -0.4456
vn -0.1789 0.8111 -0.5569
vn -0.3091 0.6196 -0.7214
vn -0.1342 0.6984 -0.7030
vn -0.2708 0.6891 -0.6722
vn -0.5246 0.7046 -0.4778
vn 0.1828 0.9061 0.3814
vn 0.4416 0.8338 0.3313
vn 0.1809 0.9656 -0.1867
vn -0.1311 0.9906 -0.0387
vn -0.1178 0.9457 -0.3028
vn 0.0844 0.9013 -0.4249
vn 0.2186 0.7850 -0.5796
vn 0.1378 0.8770 -0.4602
vn 0.3516 0.6298 -0.6926
vn 0.3212 0.7640 -0.5596
vn -0.5231 0.8522 -0.0090
vn -0.3757 0.9242 0.0681
vn -0.1857 0.9770 -0.1046
vn -0.3381 0.8704 -0.3579
vn 0.0374 0.9963 -0.0775
vn -0.0428 0.8577 -0.5123
vn 0.1012 0.9917 0.0793
vn 0.1269 0.9681 -0.2161
vn -0.5961 0.6373 -0.4884
vn -0.7408 0.5578 -0.3742
vn -0.4375 0.8614 0.2581
vn -0.1917 0.9662 -0.1725
vn -0.0964 0.8103 0.5780
vn -0.0201 0.9975 0.0678
vn -0.3174 0.7915 0.5222
vn -0.3243 0.9087 -0.2629
vn 0.0911 0.7035 -0.7048
vn -0.1104 0.5809 -0.8065
vn -0.2745 0.7768 -0.5667
vn 0.0048 0.9317 -0.3631
vn -0.1942 0.9505 -0.2426
vn -0.0284 0.9996 0.0055
vn -0.1620 0.9749 -0.1523
vn -0.0840 0.9932 0.0803
vn -0.0777 0.9951 -0.0599
vn -0.0911 0.9663 -0.2406
vn -0.2459 0.8564 -0.4539
vn -0.1987 0.9422 -0.2697
vn -0.1516 0.7302 -0.6662
vn -0.1954 0.9203 -0.3390
vn -0.1447 0.6809 -0.7179
vn -0.2232 0.9089 -0.3522
vn -0.5316 0.7748 -0.3420
vn -0.3560 0.7695 -0.5302
vn -0.3614 0.9184 0.1612
vn -0.3925 0.8970 -0.2029
vn -0.5765 0.8080 0.1211
vn -0.5195 0.8459 0.1205
vn -0.2385 0.8171 0.5248
vn -0.4607 0.8733 0.1583
vn 0.3476 0.8550 0.3848
vn 0.0326 0.7848 0.6189
vn 0.3007 0.9535 -0.0189
vn 0.3704 0.9242 -0.0931
vn -0.0168 0.7438 -0.6682
vn 0.1056 0.8710 -0.4797
vn 0.3444 0.9323 -0.1103
vn 0.3742 0.9235 0.0850
vn -0.5506 0.8243 -0.1315
vn -0.3917 0.6303 -0.6702
vn 0.0424 0.7936 -0.6069
vn -0.2206 0.6829 -0.6963
vn 0.0273 0.7504 -0.6604
vn -0.3710 0.6363 -0.6763
vn -0.5524 0.6084 -0.5698
vn -0.6834 0.7282 -0.0510
vn -0.1088 0.6670 -0.7371
vn 0.1429 0.6529 -0.7438
vn -0.4521 0.7145 -0.5339
vn -0.3673 0.7641 0.5303
vn -0.6501 0.6798 -0.3393
vn 0.2380 0.8502 0.4695
vn -0.0014 0.9493 -0.3143
vn 0.2759 0.8761 -0.3954
vn -0.3280 0.9309 -0.1604
vn -0.4178 0.9011 0.1162
vn 0.2618 0.9495 -0.1731
vn 0.3774 0.9237 -0.0652
vn -0.0409 0.9903 0.1327
vn -0.2138 0.9751 0.0584
vn -0.2598 0.9568 0.1303
vn -0.1620 0.9862 0.0329
vn 0.0946 0.5900 -0.8018
vn 0.1524 0.9612 0.2297
vn 0.0755 0.8620 0.5013
vn 0.3042 0.9217 -0.2406
vn 0.0677 0.9956 -0.0641
vn 0.0439 0.9968 0.0669
vn -0.1648 0.9862 -0.0149
vn -0.3717 0.9283 -0.0066
usemtl M_heta.003
s 1
f 8/1/1 9/2/2 10/3/3
f 11/4/4 12/5/5 13/6/6 14/7/7
f 15/8/8 16/9/9 17/10/10 18/11/11
f 19/12/12 20/13/13 21/14/14 22/15/15
f 23/16/16 24/17/17 25/18/18 26/19/19
f 27/20/20 28/21/21 29/22/22 30/23/23
f 30/23/23 29/22/22 31/24/24 32/25/25
f 33/26/26 34/27/27 35/28/28 36/29/29
f 36/29/29 35/28/28 37/30/30 38/31/31
f 38/31/31 37/30/30 39/32/32 40/33/33
f 18/11/11 17/10/10 20/13/13 19/12/12
f 41/34/34 42/35/35 43/36/36 44/37/37
f 44/37/37 43/36/36 45/38/38 46/39/39
f 46/39/39 45/38/38 47/40/40 48/41/41
f 49/42/42 50/43/43 51/44/44 52/45/45
f 52/45/45 51/44/44 53/46/46 54/47/47
f 54/47/47 53/46/46 55/48/48 56/49/49
f 57/50/50 58/51/51 59/52/52 60/53/53
f 60/53/53 59/52/52 61/54/54 62/55/55
f 62/55/55 61/54/54 63/56/56 64/57/57
f 65/58/58 66/59/59 42/35/35 41/34/34
f 67/60/60 14/7/7 15/8/8 68/61/61
f 69/62/62 70/63/63 34/27/27 33/26/26
f 71/64/64 72/65/65 12/5/5 11/4/4
f 73/66/66 74/67/67 24/17/17 23/16/16
f 75/68/68 76/69/69 58/51/51 57/50/50
f 77/70/70 78/71/71 50/43/43 49/42/42
f 79/72/72 80/73/73 76/69/69 75/68/68
f 81/74/74 65/58/58 41/34/34 82/75/75
f 83/76/76 46/39/39 48/41/41 84/77/77
f 85/78/78 44/37/37 46/39/39 83/76/76
f 82/75/75 41/34/34 44/37/37 85/78/78
f 14/7/7 13/6/6 16/9/9 15/8/8
f 86/79/79 18/11/11 19/12/12 87/80/80
f 72/65/65 69/62/62 33/26/26 88/81/81
f 89/82/82 38/31/31 40/33/33 90/83/83
f 91/84/84 36/29/29 38/31/31 89/82/82
f 88/81/81 33/26/26 36/29/29 91/84/84
f 74/67/67 71/64/64 11/4/4 92/85/85
f 87/80/80 19/12/12 22/15/15 93/86/86
f 68/61/61 15/8/8 18/11/11 86/79/79
f 92/85/85 11/4/4 14/7/7 67/60/60
f 80/73/73 73/66/66 23/16/16 94/87/87
f 95/88/88 30/23/23 32/25/25 96/89/89
f 97/90/90 27/20/20 30/23/23 95/88/88
f 94/87/87 23/16/16 26/19/19 98/91/91
f 99/92/92 79/72/72 75/68/68 100/93/93
f 100/93/93 75/68/68 57/50/50 101/94/94
f 102/95/95 62/55/55 64/57/57 103/96/96
f 104/97/97 60/53/53 62/55/55 102/95/95
f 101/94/94 57/50/50 60/53/53 104/97/97
f 66/59/59 77/70/70 49/42/42 105/98/98
f 106/99/99 54/47/47 56/49/49 107/100/100
f 108/101/101 52/45/45 54/47/47 106/99/99
f 105/98/98 49/42/42 52/45/45 108/101/101
f 8/1/1 109/102/102 9/2/2
f 74/67/67 73/66/66 110/103/103 111/104/104 71/64/64
f 8/1/1 10/3/3 112/105/105
f 71/64/64 111/104/104 112/105/105 69/62/62 72/65/65
f 73/66/66 80/73/73 79/72/72 109/102/102 110/103/103
f 112/105/105 111/104/104 8/1/1
f 110/103/103 109/102/102 8/1/1
f 9/2/2 109/102/102 79/72/72 99/92/92 78/71/71 77/70/70
f 10/3/3 9/2/2 77/70/70 66/59/59 65/58/58
f 111/104/104 110/103/103 8/1/1
f 112/105/105 10/3/3 65/58/58 81/74/74 70/63/63 69/62/62
f 98/91/91 26/19/19 27/20/20 97/90/90
f 26/19/19 25/18/18 28/21/21 27/20/20
